HIERARCHY
ROOT mixamorig:Hips
{
	OFFSET 0.000000 201.639420 0.000000
	CHANNELS 6 Xposition Yposition Zposition Xrotation Yrotation Zrotation
	JOINT mixamorig:Spine
	{
		OFFSET 0.006200 19.524994 -2.481800
		CHANNELS 3 Xrotation Yrotation Zrotation
		JOINT mixamorig:Spine1
		{
			OFFSET -0.000900 22.835007 -2.825400
			CHANNELS 3 Xrotation Yrotation Zrotation
			JOINT mixamorig:Spine2
			{
				OFFSET -0.020600 26.552490 -3.193300
				CHANNELS 3 Xrotation Yrotation Zrotation
				JOINT mixamorig:Neck
				{
					OFFSET -0.060000 30.701813 1.352200
					CHANNELS 3 Xrotation Yrotation Zrotation
					JOINT mixamorig:Head
					{
						OFFSET -0.087200 22.547607 3.670900
						CHANNELS 3 Xrotation Yrotation Zrotation
						JOINT mixamorig:HeadTop_End
						{
							OFFSET -0.830600 40.355194 7.893500
							CHANNELS 3 Xrotation Yrotation Zrotation
							End Site
							{
								OFFSET 0.000000 30.592346 0.000000
							}
						}
						JOINT mixamorig:RightEye
						{
							OFFSET -6.302100 18.118591 16.197100
							CHANNELS 3 Xrotation Yrotation Zrotation
							End Site
							{
								OFFSET 0.000000 30.592346 0.000000
							}
						}
						JOINT mixamorig:LeftEye
						{
							OFFSET 6.741500 18.382690 16.401899
							CHANNELS 3 Xrotation Yrotation Zrotation
							End Site
							{
								OFFSET 0.000000 30.592346 0.000000
							}
						}
					}
				}
				JOINT mixamorig:LeftShoulder
				{
					OFFSET 11.924900 18.230499 1.425400
					CHANNELS 3 Xrotation Yrotation Zrotation
					JOINT mixamorig:LeftArm
					{
						OFFSET 25.435989 -0.697632 -5.229300
						CHANNELS 3 Xrotation Yrotation Zrotation
						JOINT mixamorig:LeftForeArm
						{
							OFFSET 54.684776 0.000000 0.000000
							CHANNELS 3 Xrotation Yrotation Zrotation
							JOINT mixamorig:LeftHand
							{
								OFFSET 55.098175 0.000000 0.000000
								CHANNELS 3 Xrotation Yrotation Zrotation
								JOINT mixamorig:LeftHandMiddle1
								{
									OFFSET 23.369751 0.000000 0.000000
									CHANNELS 3 Xrotation Yrotation Zrotation
									JOINT mixamorig:LeftHandMiddle2
									{
										OFFSET 6.378677 0.000000 0.000000
										CHANNELS 3 Xrotation Yrotation Zrotation
										JOINT mixamorig:LeftHandMiddle3
										{
											OFFSET 6.148331 0.000000 0.000000
											CHANNELS 3 Xrotation Yrotation Zrotation
											JOINT mixamorig:LeftHandMiddle4
											{
												OFFSET 6.582504 0.000000 0.000000
												CHANNELS 3 Xrotation Yrotation Zrotation
												End Site
												{
													OFFSET -1.168900 6.395691 1.028606
												}
											}
										}
									}
								}
								JOINT mixamorig:LeftHandThumb1
								{
									OFFSET 7.235672 -3.848206 5.434273
									CHANNELS 3 Xrotation Yrotation Zrotation
									JOINT mixamorig:LeftHandThumb2
									{
										OFFSET 6.568451 -3.792297 3.792300
										CHANNELS 3 Xrotation Yrotation Zrotation
										JOINT mixamorig:LeftHandThumb3
										{
											OFFSET 6.063080 -3.500519 3.500518
											CHANNELS 3 Xrotation Yrotation Zrotation
											JOINT mixamorig:LeftHandThumb4
											{
												OFFSET 4.793182 -2.767334 2.767349
												CHANNELS 3 Xrotation Yrotation Zrotation
												End Site
												{
													OFFSET 0.101639 6.054260 1.275483
												}
											}
										}
									}
								}
								JOINT mixamorig:LeftHandIndex1
								{
									OFFSET 23.101074 -0.309540 4.992809
									CHANNELS 3 Xrotation Yrotation Zrotation
									JOINT mixamorig:LeftHandIndex2
									{
										OFFSET 6.226883 0.000000 0.000000
										CHANNELS 3 Xrotation Yrotation Zrotation
										JOINT mixamorig:LeftHandIndex3
										{
											OFFSET 6.094330 0.000000 0.000000
											CHANNELS 3 Xrotation Yrotation Zrotation
											JOINT mixamorig:LeftHandIndex4
											{
												OFFSET 5.482605 0.000000 0.000000
												CHANNELS 3 Xrotation Yrotation Zrotation
												End Site
												{
													OFFSET -1.427902 5.233032 0.797164
												}
											}
										}
									}
								}
								JOINT mixamorig:LeftHandRing1
								{
									OFFSET 22.299240 0.021149 -3.964172
									CHANNELS 3 Xrotation Yrotation Zrotation
									JOINT mixamorig:LeftHandRing2
									{
										OFFSET 6.321869 0.000000 0.000000
										CHANNELS 3 Xrotation Yrotation Zrotation
										JOINT mixamorig:LeftHandRing3
										{
											OFFSET 5.899796 0.000000 0.000000
											CHANNELS 3 Xrotation Yrotation Zrotation
											JOINT mixamorig:LeftHandRing4
											{
												OFFSET 6.517899 0.000000 0.000000
												CHANNELS 3 Xrotation Yrotation Zrotation
												End Site
												{
													OFFSET -1.637299 6.232208 0.980890
												}
											}
										}
									}
								}
								JOINT mixamorig:LeftHandPinky1
								{
									OFFSET 20.463791 -0.302338 -8.562233
									CHANNELS 3 Xrotation Yrotation Zrotation
									JOINT mixamorig:LeftHandPinky2
									{
										OFFSET 6.908646 0.000000 0.000000
										CHANNELS 3 Xrotation Yrotation Zrotation
										JOINT mixamorig:LeftHandPinky3
										{
											OFFSET 4.622849 0.000000 0.000000
											CHANNELS 3 Xrotation Yrotation Zrotation
											JOINT mixamorig:LeftHandPinky4
											{
												OFFSET 5.216080 0.000000 0.000000
												CHANNELS 3 Xrotation Yrotation Zrotation
												End Site
												{
													OFFSET -0.606308 5.116241 0.814926
												}
											}
										}
									}
								}
							}
						}
					}
				}
				JOINT mixamorig:RightShoulder
				{
					OFFSET -12.001300 18.284088 1.348900
					CHANNELS 3 Xrotation Yrotation Zrotation
					JOINT mixamorig:RightArm
					{
						OFFSET -25.308500 -0.751312 -5.164599
						CHANNELS 3 Xrotation Yrotation Zrotation
						JOINT mixamorig:RightForeArm
						{
							OFFSET -54.684429 0.000000 0.000000
							CHANNELS 3 Xrotation Yrotation Zrotation
							JOINT mixamorig:RightHand
							{
								OFFSET -55.150291 0.000000 0.000000
								CHANNELS 3 Xrotation Yrotation Zrotation
								JOINT mixamorig:RightHandMiddle1
								{
									OFFSET -23.317566 0.000000 0.000000
									CHANNELS 3 Xrotation Yrotation Zrotation
									JOINT mixamorig:RightHandMiddle2
									{
										OFFSET -6.378403 0.000000 0.000000
										CHANNELS 3 Xrotation Yrotation Zrotation
										JOINT mixamorig:RightHandMiddle3
										{
											OFFSET -6.148193 0.000000 0.000000
											CHANNELS 3 Xrotation Yrotation Zrotation
											JOINT mixamorig:RightHandMiddle4
											{
												OFFSET -6.583389 0.000000 0.000000
												CHANNELS 3 Xrotation Yrotation Zrotation
												End Site
												{
													OFFSET 1.171692 6.395905 1.029786
												}
											}
										}
									}
								}
								JOINT mixamorig:RightHandThumb1
								{
									OFFSET -7.190521 -3.860474 5.435846
									CHANNELS 3 Xrotation Yrotation Zrotation
									JOINT mixamorig:RightHandThumb2
									{
										OFFSET -6.567429 -3.791718 3.791708
										CHANNELS 3 Xrotation Yrotation Zrotation
										JOINT mixamorig:RightHandThumb3
										{
											OFFSET -6.062469 -3.500153 3.500166
											CHANNELS 3 Xrotation Yrotation Zrotation
											JOINT mixamorig:RightHandThumb4
											{
												OFFSET -4.792618 -2.767029 2.767022
												CHANNELS 3 Xrotation Yrotation Zrotation
												End Site
												{
													OFFSET -0.100327 6.053253 1.276754
												}
											}
										}
									}
								}
								JOINT mixamorig:RightHandIndex1
								{
									OFFSET -23.048981 -0.310791 4.992554
									CHANNELS 3 Xrotation Yrotation Zrotation
									JOINT mixamorig:RightHandIndex2
									{
										OFFSET -6.227539 0.000000 0.000000
										CHANNELS 3 Xrotation Yrotation Zrotation
										JOINT mixamorig:RightHandIndex3
										{
											OFFSET -6.095047 0.000000 0.000000
											CHANNELS 3 Xrotation Yrotation Zrotation
											JOINT mixamorig:RightHandIndex4
											{
												OFFSET -5.484772 0.000000 0.000000
												CHANNELS 3 Xrotation Yrotation Zrotation
												End Site
												{
													OFFSET 1.420593 5.237305 0.797056
												}
											}
										}
									}
								}
								JOINT mixamorig:RightHandRing1
								{
									OFFSET -22.246323 0.020569 -3.963762
									CHANNELS 3 Xrotation Yrotation Zrotation
									JOINT mixamorig:RightHandRing2
									{
										OFFSET -6.322128 0.000000 0.000000
										CHANNELS 3 Xrotation Yrotation Zrotation
										JOINT mixamorig:RightHandRing3
										{
											OFFSET -5.900024 0.000000 0.000000
											CHANNELS 3 Xrotation Yrotation Zrotation
											JOINT mixamorig:RightHandRing4
											{
												OFFSET -6.518356 0.000000 0.000000
												CHANNELS 3 Xrotation Yrotation Zrotation
												End Site
												{
													OFFSET 1.636398 6.232697 0.982186
												}
											}
										}
									}
								}
								JOINT mixamorig:RightHandPinky1
								{
									OFFSET -20.411011 -0.303314 -8.561701
									CHANNELS 3 Xrotation Yrotation Zrotation
									JOINT mixamorig:RightHandPinky2
									{
										OFFSET -6.907349 0.000000 0.000000
										CHANNELS 3 Xrotation Yrotation Zrotation
										JOINT mixamorig:RightHandPinky3
										{
											OFFSET -4.623840 0.000000 0.000000
											CHANNELS 3 Xrotation Yrotation Zrotation
											JOINT mixamorig:RightHandPinky4
											{
												OFFSET -5.218353 0.000000 0.000000
												CHANNELS 3 Xrotation Yrotation Zrotation
												End Site
												{
													OFFSET 0.602097 5.118835 0.816273
												}
											}
										}
									}
								}
							}
						}
					}
				}
			}
		}
	}
	JOINT mixamorig:LeftUpLeg
	{
		OFFSET 18.168400 -13.561905 -0.039000
		CHANNELS 3 Xrotation Yrotation Zrotation
		JOINT mixamorig:LeftLeg
		{
			OFFSET 0.577358 -80.825211 -3.695000
			CHANNELS 3 Xrotation Yrotation Zrotation
			JOINT mixamorig:LeftFoot
			{
				OFFSET -0.577356 -83.370262 -6.520700
				CHANNELS 3 Xrotation Yrotation Zrotation
				JOINT mixamorig:LeftToeBase
				{
					OFFSET 0.750401 -20.798306 25.135401
					CHANNELS 3 Xrotation Yrotation Zrotation
					JOINT mixamorig:LeftToe_End
					{
						OFFSET -0.000500 0.001200 19.917799
						CHANNELS 3 Xrotation Yrotation Zrotation
						End Site
						{
							OFFSET 0.000000 19.917805 0.000000
						}
					}
				}
			}
		}
	}
	JOINT mixamorig:RightUpLeg
	{
		OFFSET -18.162500 -13.585098 -0.041000
		CHANNELS 3 Xrotation Yrotation Zrotation
		JOINT mixamorig:RightLeg
		{
			OFFSET -0.595024 -80.945297 -3.631900
			CHANNELS 3 Xrotation Yrotation Zrotation
			JOINT mixamorig:RightFoot
			{
				OFFSET 0.595024 -83.218193 -6.561200
				CHANNELS 3 Xrotation Yrotation Zrotation
				JOINT mixamorig:RightToeBase
				{
					OFFSET -0.753601 -20.807106 25.115000
					CHANNELS 3 Xrotation Yrotation Zrotation
					JOINT mixamorig:RightToe_End
					{
						OFFSET 0.000299 0.001700 19.918200
						CHANNELS 3 Xrotation Yrotation Zrotation
						End Site
						{
							OFFSET 0.000000 19.918203 0.000000
						}
					}
				}
			}
		}
	}
}
MOTION
Frames: 4
Frame Time: 0.033333
25.354860 193.688385 -84.549019 0.998631 -1.506359 -0.057130 5.879189 0.369458 -1.699541 2.438520 0.305712 -1.025714 2.436922 0.269073 -1.036125 5.825416 -0.949374 -0.810392 0.001368 -7.321538 4.653337 0.000001 -0.000001 0.000000 0.000001 -0.000001 0.000000 0.000001 -0.000001 0.000000 0.536092 2.682221 -8.696715 -15.966645 -42.595061 -58.083075 0.000005 -51.075724 0.000019 18.463695 11.289254 29.255309 0.010531 1.174587 -18.832350 0.012298 0.412163 -3.417449 0.008751 0.347720 -2.882727 -0.000003 -0.000003 0.000003 5.822505 11.837277 7.922381 10.749347 18.988307 -7.923202 4.481312 15.319701 -0.365751 0.000001 -0.000004 -0.000001 -1.190409 1.111894 -40.338284 0.208650 1.685404 -14.112250 0.045755 0.794025 -6.594440 -0.000000 -0.000000 0.000002 0.675183 4.225602 -10.504683 0.048645 0.818757 -6.800713 0.000075 0.032074 -0.265824 0.000001 0.000001 -0.000002 0.496578 7.062748 -3.768463 0.037550 -3.239042 -7.282384 0.004379 -0.245986 2.038732 -0.000004 -0.000000 0.000001 0.900364 -6.255072 13.358774 -10.910205 44.636840 40.443985 -0.000007 27.412590 0.000014 16.745276 0.296421 -24.098750 0.462829 4.043771 -7.143187 0.519952 -2.642804 22.256817 0.145486 -1.057691 8.796369 0.000001 0.000001 -0.000004 -4.365544 -10.620452 -9.103605 11.432410 -19.248431 1.847045 6.549845 -5.798156 -0.244910 0.000001 0.000001 -0.000001 0.127807 2.269694 -3.451924 0.872819 -3.377870 28.968308 0.205951 -1.683057 13.951916 0.000002 0.000001 -0.000000 -0.078803 0.338487 -11.804171 1.241962 -3.970955 34.723541 -0.044707 -0.410598 3.343717 -0.000001 -0.000000 -0.000001 0.077994 2.639719 -1.617500 0.738820 -3.124003 26.605702 0.017769 -0.497865 4.088748 -0.000001 0.000002 -0.000001 -23.047297 3.603717 -4.126938 35.006605 7.901512 0.015332 -14.796715 20.689036 7.796775 -0.035275 -0.000004 -0.000005 0.000000 0.000001 0.000000 -28.534010 -11.565823 -14.992124 23.042429 -10.280855 -0.886253 8.306748 -23.553702 8.672295 3.297313 -0.000043 0.000002 0.000000 0.000001 0.000000 
25.426306 193.587296 -84.528236 0.915913 -1.485235 -0.095907 5.903166 0.378974 -1.681433 2.452507 0.311329 -1.015524 2.450883 0.275431 -1.026183 5.841370 -0.980238 -0.779465 -0.066387 -7.425307 4.576999 -0.000002 0.000000 0.000000 -0.000002 0.000000 0.000000 -0.000002 0.000000 0.000000 0.529445 2.647508 -8.566305 -16.070749 -42.615668 -58.283336 0.000016 -51.054633 -0.000009 18.458655 11.328940 29.292287 0.014310 1.189445 -18.895394 0.012588 0.417055 -3.457988 0.008842 0.349610 -2.898109 0.000001 0.000001 -0.000002 5.842991 11.874433 7.939235 10.757359 18.998195 -7.931673 4.487680 15.334055 -0.369250 0.000001 -0.000001 -0.000000 -1.218187 1.088001 -40.416483 0.208626 1.685396 -14.112013 0.045876 0.795249 -6.604686 0.000000 0.000000 -0.000002 0.685166 4.270912 -10.528846 0.049241 0.823634 -6.841572 0.000096 0.035139 -0.291174 0.000001 0.000001 -0.000001 0.505932 7.105437 -3.820263 0.038346 -3.232905 -7.333624 0.004344 -0.245199 2.032270 -0.000001 0.000001 -0.000000 0.896160 -6.241082 13.314444 -10.922836 44.550110 40.452963 0.000008 27.442927 -0.000020 16.780253 0.216622 -24.106775 0.447506 4.001702 -6.965449 0.524434 -2.653766 22.353971 0.145278 -1.059970 8.814442 0.000002 -0.000002 -0.000001 -4.484559 -10.438914 -9.211549 11.271050 -19.012019 1.797176 6.538785 -5.780418 -0.246034 0.000001 0.000000 0.000002 0.119823 2.242695 -3.254579 0.875481 -3.382654 29.013558 0.207703 -1.690043 14.011159 -0.000000 -0.000000 -0.000001 -0.081402 0.316221 -11.703184 1.239501 -3.967427 34.687826 -0.045497 -0.406781 3.312291 -0.000000 -0.000001 0.000003 0.076470 2.597568 -1.614466 0.742982 -3.132299 26.682194 0.018223 -0.504295 4.141648 -0.000001 0.000001 -0.000002 -23.138661 3.760056 -3.989054 35.372303 7.803117 -0.198297 -15.046091 20.573715 8.332494 -0.060876 -0.000002 0.000005 0.000000 -0.000001 0.000000 -28.577984 -11.523198 -14.956415 23.305003 -10.272585 -1.004062 8.271301 -23.582939 8.815103 3.328426 0.000025 -0.000003 -0.000000 -0.000002 0.000000 
25.555408 193.480637 -84.452362 0.832990 -1.401126 -0.016729 5.918737 0.355287 -1.719511 2.459370 0.296067 -1.029758 2.457734 0.260127 -1.039897 5.804457 -1.006976 -0.731238 -0.053946 -7.489197 4.528478 0.000001 0.000000 0.000000 0.000001 0.000000 0.000000 0.000001 0.000000 0.000000 0.525014 2.576799 -8.469032 -16.024281 -42.597004 -58.350231 -0.000029 -51.148671 -0.000036 18.433661 11.356650 29.335816 0.021913 1.212661 -18.909758 0.012748 0.419501 -3.478146 0.008818 0.349216 -2.895002 -0.000002 -0.000002 0.000002 5.852148 11.892694 7.951985 10.770305 19.014074 -7.945374 4.484517 15.326948 -0.367498 0.000002 -0.000001 0.000001 -1.231924 1.079342 -40.481158 0.208632 1.685403 -14.112164 0.045950 0.795899 -6.610021 -0.000000 0.000002 -0.000001 0.689547 4.296312 -10.519670 0.049592 0.826530 -6.865880 0.000091 0.036807 -0.305107 -0.000001 -0.000001 -0.000001 0.509396 7.130955 -3.832523 0.038752 -3.229708 -7.360204 0.004360 -0.245657 2.036037 -0.000001 -0.000001 -0.000001 0.892024 -6.278465 13.251821 -10.827471 44.558303 40.397297 -0.000002 27.454623 0.000010 16.634321 0.264350 -24.148836 0.442079 3.988852 -6.896880 0.523520 -2.651502 22.334372 0.145003 -1.058760 8.804471 -0.000001 0.000000 0.000001 -4.592383 -10.270113 -9.276054 11.153783 -18.839537 1.760990 6.519918 -5.750130 -0.247953 0.000000 0.000004 0.000000 0.115404 2.232482 -3.135111 0.874755 -3.381367 29.001103 0.207605 -1.689632 14.007759 -0.000000 -0.000003 0.000004 -0.081479 0.312310 -11.666578 1.233553 -3.958818 34.601772 -0.045553 -0.406520 3.310202 0.000003 -0.000001 0.000004 0.075664 2.615217 -1.581128 0.737854 -3.122084 26.588113 0.018220 -0.504039 4.139732 0.000000 0.000001 -0.000002 -23.101011 3.667337 -4.231093 35.502258 7.830154 -0.099114 -15.138843 20.698578 8.314487 -0.078261 -0.000000 0.000006 0.000000 -0.000002 -0.000000 -28.724552 -11.585721 -15.192697 23.689920 -10.264851 -1.016991 8.137206 -23.489225 8.851865 3.407330 0.000045 -0.000002 -0.000000 0.000000 -0.000000 
25.694212 193.428360 -84.378899 0.738031 -1.374003 0.095919 5.920612 0.323209 -1.764936 2.463745 0.274941 -1.051933 2.462137 0.238489 -1.061274 5.774061 -1.007695 -0.745720 -0.036888 -7.542561 4.642343 0.000001 -0.000000 0.000000 0.000001 -0.000000 0.000000 0.000001 -0.000000 0.000000 0.521267 2.398184 -8.358896 -15.931988 -42.305171 -58.434249 -0.000028 -51.281009 -0.000027 18.505505 11.359795 29.398405 0.029566 1.233921 -18.889009 0.012810 0.420329 -3.485233 0.008807 0.348995 -2.893286 -0.000000 -0.000002 0.000001 5.854101 11.897033 7.956128 10.786072 19.033459 -7.962024 4.474916 15.305301 -0.362211 -0.000001 0.000003 0.000002 -1.230113 1.084888 -40.509480 0.208669 1.685489 -14.112868 0.045929 0.795647 -6.608071 -0.000001 -0.000003 0.000002 0.691256 4.310367 -10.501167 0.049734 0.827759 -6.876224 0.000110 0.037518 -0.310834 -0.000003 -0.000002 0.000000 0.509058 7.135214 -3.826557 0.038858 -3.228886 -7.367109 0.004398 -0.246825 2.045985 -0.000003 0.000000 -0.000000 0.893667 -6.301080 13.262813 -10.880634 44.624938 40.416883 -0.000009 27.244825 -0.000001 16.450432 0.583599 -24.108155 0.441927 3.993358 -6.883740 0.520802 -2.644870 22.275308 0.144830 -1.056592 8.786313 0.000002 -0.000001 -0.000001 -4.659027 -10.163707 -9.298024 11.094310 -18.751837 1.742661 6.505141 -5.726421 -0.249464 0.000001 0.000000 0.000000 0.112331 2.228035 -3.047033 0.873420 -3.378970 28.978536 0.206493 -1.685201 13.970238 -0.000000 0.000000 0.000003 -0.079637 0.321965 -11.672966 1.228322 -3.951259 34.526050 -0.045045 -0.408195 3.323855 -0.000000 0.000001 0.000001 0.075797 2.636168 -1.568008 0.731426 -3.109223 26.469765 0.018098 -0.502282 4.125240 -0.000001 0.000000 0.000001 -22.978225 3.477576 -4.616343 35.465949 7.870166 0.124842 -15.134246 21.012765 8.216181 -0.083933 0.000021 -0.000001 -0.000000 -0.000001 -0.000000 -28.802228 -11.660560 -15.440245 23.916380 -10.267237 -1.027548 8.064338 -23.311671 8.832110 3.468580 0.000006 -0.000001 0.000000 0.000002 -0.000000 
